This was slightly cropped at the bottom to remove an annoying weather alert.																																							   ************************************************************************************************************************************************************************************************************																																																																	J_Kimmel_Sarah_Shahi_720p_Cropped_2011-02-0_TTL.avi
Format                           : AVI
Format/Info                      : Audio Video Interleave
File size                        : 72.3 MiB
Duration                         : 6mn 34s
Overall bit rate                 : 1 538 Kbps

Video
ID                               : 0
Format                           : MPEG-4 Visual
Format profile                   : Advanced Simple@L5
Format settings, BVOP            : Yes
Format settings, QPel            : No
Format settings, GMC             : No warppoints
Format settings, Matrix          : Default (H.263)
Codec ID                         : XVID
Codec ID/Hint                    : XviD
Duration                         : 6mn 34s
Bit rate                         : 1 412 Kbps
Width                            : 1 280 pixels
Height                           : 590 pixels
Display aspect ratio             : 2.2:1
Frame rate                       : 29.970 fps
Color space                      : YUV
Chroma subsampling               : 4:2:0
Bit depth                        : 8 bits
Scan type                        : Progressive
Bits/(Pixel*Frame)               : 0.062
Stream size                      : 66.4 MiB (92%)
Writing library                  : XviD 1.2.0.dev47 (UTC 2006-11-01)

Audio
ID                               : 1
Format                           : MPEG Audio
Format version                   : Version 1
Format profile                   : Layer 3
Mode                             : Joint stereo
Mode extension                   : MS Stereo
Codec ID                         : 55
Codec ID/Hint                    : MP3
Duration                         : 6mn 34s
Bit rate mode                    : Constant
Bit rate                         : 112 Kbps
Channel(s)                       : 2 channels
Sampling rate                    : 48.0 KHz
Bit depth                        : 16 bits
Stream size                      : 5.26 MiB (7%)
Alignment                        : Aligned on interleaves
Interleave, duration             : 24 ms (0.72 video frame)

